STARTFONT 2.1
FONT -Adobe-Helvetica-Medium-O-Narrow--19-140-100-100-P-84-ISO8859-1
SIZE 14 100 100
FONTBOUNDINGBOX 22 19 -4 -5

STARTPROPERTIES 26
_DEC_DEVICE_FONTNAMES "PS=Helvetica-Narrow-Oblique"
FONTNAME_REGISTRY ""
FAMILY_NAME "Helvetica"
FOUNDRY "Adobe"
WEIGHT_NAME "Medium"
SLANT "O"
SETWIDTH_NAME "Narrow"
ADD_STYLE_NAME ""
PIXEL_SIZE 19
POINT_SIZE 140
RESOLUTION_X 100
RESOLUTION_Y 100
SPACING "P"
AVERAGE_WIDTH 84
CHARSET_REGISTRY "ISO8859"
CHARSET_ENCODING "1"
CHARSET_COLLECTIONS "ASCII ISO8859-1 ADOBE-STANDARD"
FULL_NAME "Helvetica Narrow Oblique"
COPYRIGHT "Copyright (c) 1991 Adobe Systems, Inc."
CAP_HEIGHT 14
X_HEIGHT 10
WEIGHT 10
QUAD_WIDTH 10
DEFAULT_CHAR 0
FONT_DESCENT 5
FONT_ASCENT 14
ENDPROPERTIES

CHARS 190

STARTCHAR space
ENCODING 32
SWIDTH 228 0
DWIDTH 4 0
BBX 1 1 0 0
BITMAP
00
ENDCHAR

STARTCHAR exclam
ENCODING 33
SWIDTH 228 0
DWIDTH 4 0
BBX 5 14 1 0
BITMAP
18
18
18
30
30
30
30
60
60
60
60
00
C0
C0
ENDCHAR

STARTCHAR quotedbl
ENCODING 34
SWIDTH 291 0
DWIDTH 8 0
BBX 5 5 3 9
BITMAP
D8
D8
D8
90
90
ENDCHAR

STARTCHAR numbersign
ENCODING 35
SWIDTH 456 0
DWIDTH 9 0
BBX 10 13 -1 0
BITMAP
0CC0
0CC0
0880
1980
7FC0
1100
3300
2200
FF80
6600
4400
CC00
CC00
ENDCHAR

STARTCHAR dollar
ENCODING 36
SWIDTH 456 0
DWIDTH 9 0
BBX 9 16 0 -2
BITMAP
0200
0F00
1F80
3580
3580
3400
3C00
1E00
0F00
0B00
CB00
CB00
FE00
7C00
1000
1000
ENDCHAR

STARTCHAR percent
ENCODING 37
SWIDTH 729 0
DWIDTH 14 0
BBX 12 14 1 0
BITMAP
3860
6C60
CCC0
CD80
D980
7300
0600
0600
0CE0
19B0
1B30
3330
6360
61C0
ENDCHAR

STARTCHAR ampersand
ENCODING 38
SWIDTH 547 0
DWIDTH 11 0
BBX 10 13 1 0
BITMAP
0700
0D80
1980
1980
1B00
0E00
1C00
36C0
66C0
C380
C380
E6C0
7CC0
ENDCHAR

STARTCHAR quoteright
ENCODING 39
SWIDTH 182 0
DWIDTH 3 0
BBX 2 4 3 10
BITMAP
C0
C0
40
80
ENDCHAR

STARTCHAR parenleft
ENCODING 40
SWIDTH 273 0
DWIDTH 5 0
BBX 6 18 1 -4
BITMAP
0C
18
18
30
30
60
60
60
C0
C0
C0
C0
C0
C0
C0
60
60
30
ENDCHAR

STARTCHAR parenright
ENCODING 41
SWIDTH 273 0
DWIDTH 7 0
BBX 6 18 1 -4
BITMAP
30
18
18
0C
0C
0C
0C
0C
0C
0C
18
18
18
30
30
60
60
C0
ENDCHAR

STARTCHAR asterisk
ENCODING 42
SWIDTH 319 0
DWIDTH 6 0
BBX 4 4 3 10
BITMAP
20
F0
60
A0
ENDCHAR

STARTCHAR plus
ENCODING 43
SWIDTH 479 0
DWIDTH 9 0
BBX 8 9 0 0
BITMAP
08
08
08
08
FF
10
10
10
10
ENDCHAR

STARTCHAR comma
ENCODING 44
SWIDTH 228 0
DWIDTH 4 0
BBX 2 4 1 -2
BITMAP
C0
C0
40
80
ENDCHAR

STARTCHAR minus
ENCODING 45
SWIDTH 479 0
DWIDTH 9 0
BBX 7 1 1 4
BITMAP
FE
ENDCHAR

STARTCHAR period
ENCODING 46
SWIDTH 228 0
DWIDTH 4 0
BBX 2 2 1 0
BITMAP
C0
C0
ENDCHAR

STARTCHAR slash
ENCODING 47
SWIDTH 228 0
DWIDTH 5 0
BBX 10 19 -2 -5
BITMAP
0040
00C0
0080
0180
0100
0300
0200
0600
0400
0C00
0800
1800
1000
3000
2000
6000
4000
C000
8000
ENDCHAR

STARTCHAR zero
ENCODING 48
SWIDTH 456 0
DWIDTH 9 0
BBX 9 14 0 0
BITMAP
0F00
1F80
3180
3180
6180
6180
6180
C300
C300
C300
C600
C600
FC00
7800
ENDCHAR

STARTCHAR one
ENCODING 49
SWIDTH 456 0
DWIDTH 9 0
BBX 5 14 2 0
BITMAP
18
18
F8
F0
30
30
30
60
60
60
60
C0
C0
C0
ENDCHAR

STARTCHAR two
ENCODING 50
SWIDTH 456 0
DWIDTH 9 0
BBX 9 14 0 0
BITMAP
0F00
1F80
3180
3180
0180
0300
0700
1E00
3800
6000
C000
C000
FE00
FE00
ENDCHAR

STARTCHAR three
ENCODING 51
SWIDTH 456 0
DWIDTH 9 0
BBX 9 14 0 0
BITMAP
0F00
1F80
3180
3180
0180
0F00
0E00
0300
0300
C300
C300
C700
7E00
3C00
ENDCHAR

STARTCHAR four
ENCODING 52
SWIDTH 456 0
DWIDTH 9 0
BBX 8 14 0 0
BITMAP
03
07
0F
1B
1B
33
66
66
C6
FF
FF
0C
0C
0C
ENDCHAR

STARTCHAR five
ENCODING 53
SWIDTH 456 0
DWIDTH 9 0
BBX 9 14 0 0
BITMAP
1F80
1F80
1800
3000
3000
6E00
7F00
6300
0300
0300
C600
C600
FC00
7800
ENDCHAR

STARTCHAR six
ENCODING 54
SWIDTH 456 0
DWIDTH 9 0
BBX 9 14 0 0
BITMAP
0F00
1F80
3180
6180
6000
CE00
DF00
F300
E300
C300
C300
C600
7E00
3C00
ENDCHAR

STARTCHAR seven
ENCODING 55
SWIDTH 456 0
DWIDTH 9 0
BBX 9 14 0 0
BITMAP
7F80
7F80
0300
0600
0C00
0C00
1800
1800
3000
3000
6000
6000
C000
C000
ENDCHAR

STARTCHAR eight
ENCODING 56
SWIDTH 456 0
DWIDTH 9 0
BBX 9 14 0 0
BITMAP
0F00
1F80
3180
3180
3300
1E00
3E00
6300
C300
C300
C300
C700
7E00
3C00
ENDCHAR

STARTCHAR nine
ENCODING 57
SWIDTH 456 0
DWIDTH 9 0
BBX 9 14 0 0
BITMAP
0F00
3F80
3180
6180
6180
6380
7F00
3B00
0300
0600
C600
CC00
FC00
7800
ENDCHAR

STARTCHAR colon
ENCODING 58
SWIDTH 228 0
DWIDTH 4 0
BBX 4 10 1 0
BITMAP
30
30
00
00
00
00
00
00
C0
C0
ENDCHAR

STARTCHAR semicolon
ENCODING 59
SWIDTH 228 0
DWIDTH 4 0
BBX 4 12 1 -2
BITMAP
30
30
00
00
00
00
00
00
C0
C0
40
80
ENDCHAR

STARTCHAR less
ENCODING 60
SWIDTH 479 0
DWIDTH 9 0
BBX 9 7 0 1
BITMAP
0380
0E00
3800
C000
7000
1C00
0600
ENDCHAR

STARTCHAR equal
ENCODING 61
SWIDTH 479 0
DWIDTH 9 0
BBX 8 4 0 3
BITMAP
7F
00
00
FE
ENDCHAR

STARTCHAR greater
ENCODING 62
SWIDTH 479 0
DWIDTH 9 0
BBX 9 7 -1 1
BITMAP
3000
1C00
0700
0180
0E00
3800
E000
ENDCHAR

STARTCHAR question
ENCODING 63
SWIDTH 456 0
DWIDTH 9 0
BBX 7 14 3 0
BITMAP
3C
7E
C6
C6
06
0C
18
30
60
60
00
00
C0
C0
ENDCHAR

STARTCHAR at
ENCODING 64
SWIDTH 832 0
DWIDTH 17 0
BBX 15 17 1 -3
BITMAP
03E0
07F8
1C1C
380C
31B6
63F6
6666
CC66
CCCC
D8CC
D998
DFF0
CEE0
600C
7038
3FF0
0FC0
ENDCHAR

STARTCHAR A
ENCODING 65
SWIDTH 547 0
DWIDTH 10 0
BBX 10 14 0 0
BITMAP
0300
0300
0700
0700
0D80
0D80
1980
1980
3F80
3FC0
60C0
60C0
C0C0
C0C0
ENDCHAR

STARTCHAR B
ENCODING 66
SWIDTH 547 0
DWIDTH 10 0
BBX 10 14 1 0
BITMAP
1F00
1F80
18C0
18C0
30C0
3180
3F80
7F00
6180
6180
6180
C300
FF00
FC00
ENDCHAR

STARTCHAR C
ENCODING 67
SWIDTH 592 0
DWIDTH 11 0
BBX 11 14 1 0
BITMAP
0780
0FC0
1860
3060
6000
6000
C000
C000
C000
C0C0
C0C0
6180
7F00
3E00
ENDCHAR

STARTCHAR D
ENCODING 68
SWIDTH 592 0
DWIDTH 11 0
BBX 11 14 1 0
BITMAP
1F80
1FC0
18C0
1860
3060
3060
3060
6060
60C0
60C0
6180
C180
FF00
FE00
ENDCHAR

STARTCHAR E
ENCODING 69
SWIDTH 547 0
DWIDTH 10 0
BBX 10 14 1 0
BITMAP
1FC0
1FC0
1800
1800
3000
3000
3F00
7F00
6000
6000
6000
C000
FE00
FE00
ENDCHAR

STARTCHAR F
ENCODING 70
SWIDTH 501 0
DWIDTH 9 0
BBX 10 14 1 0
BITMAP
1FC0
1FC0
1800
1800
3000
3000
3F00
7F00
6000
6000
6000
C000
C000
C000
ENDCHAR

STARTCHAR G
ENCODING 71
SWIDTH 638 0
DWIDTH 12 0
BBX 11 14 2 0
BITMAP
0780
0FC0
1860
3060
6000
6000
C000
C7C0
C7C0
C0C0
C180
6180
7F80
3D80
ENDCHAR

STARTCHAR H
ENCODING 72
SWIDTH 592 0
DWIDTH 11 0
BBX 12 14 1 0
BITMAP
1830
1830
1830
3060
3060
3060
3FE0
7FC0
60C0
60C0
60C0
C180
C180
C180
ENDCHAR

STARTCHAR I
ENCODING 73
SWIDTH 228 0
DWIDTH 4 0
BBX 5 14 1 0
BITMAP
18
18
18
18
30
30
30
60
60
60
60
C0
C0
C0
ENDCHAR

STARTCHAR J
ENCODING 74
SWIDTH 410 0
DWIDTH 8 0
BBX 9 14 1 0
BITMAP
0180
0180
0180
0300
0300
0300
0300
0600
0600
C600
C600
CC00
FC00
7800
ENDCHAR

STARTCHAR K
ENCODING 75
SWIDTH 547 0
DWIDTH 10 0
BBX 12 14 1 0
BITMAP
1830
1860
18C0
1980
3300
3600
3C00
7C00
6600
6600
6300
C300
C180
C180
ENDCHAR

STARTCHAR L
ENCODING 76
SWIDTH 456 0
DWIDTH 9 0
BBX 10 14 1 0
BITMAP
1800
1800
1800
1800
3000
3000
3000
6000
6000
6000
6000
C000
FE00
FE00
ENDCHAR

STARTCHAR M
ENCODING 77
SWIDTH 683 0
DWIDTH 14 0
BBX 15 14 1 0
BITMAP
1806
1806
180E
381C
3C1C
3C3C
6C6C
6C48
6CD8
6C98
C598
C730
C730
C630
ENDCHAR

STARTCHAR N
ENCODING 78
SWIDTH 592 0
DWIDTH 11 0
BBX 12 14 1 0
BITMAP
1830
1830
1830
3C60
3460
3460
66C0
66C0
62C0
63C0
C180
C180
C180
C180
ENDCHAR

STARTCHAR O
ENCODING 79
SWIDTH 638 0
DWIDTH 13 0
BBX 12 14 2 0
BITMAP
07C0
0FE0
1860
3030
6030
6030
C030
C030
C060
C060
C0C0
6180
7F00
3E00
ENDCHAR

STARTCHAR P
ENCODING 80
SWIDTH 547 0
DWIDTH 10 0
BBX 11 14 1 0
BITMAP
1FC0
1FE0
1860
1860
3060
30C0
3F80
7F00
6000
6000
6000
C000
C000
C000
ENDCHAR

STARTCHAR Q
ENCODING 81
SWIDTH 638 0
DWIDTH 13 0
BBX 12 14 2 0
BITMAP
07C0
0FE0
1860
3030
6030
6030
C030
C030
C060
C060
C6C0
6380
7F80
3EC0
ENDCHAR

STARTCHAR R
ENCODING 82
SWIDTH 592 0
DWIDTH 11 0
BBX 11 14 1 0
BITMAP
1FC0
1FE0
1860
1860
3060
30C0
3F80
7F00
6300
6180
6180
C180
C180
C180
ENDCHAR

STARTCHAR S
ENCODING 83
SWIDTH 547 0
DWIDTH 10 0
BBX 11 14 1 0
BITMAP
0780
0FC0
1860
3060
3000
3800
1E00
0700
0180
0180
C180
C300
7F00
3C00
ENDCHAR

STARTCHAR T
ENCODING 84
SWIDTH 501 0
DWIDTH 10 0
BBX 9 14 4 0
BITMAP
FF80
FF80
1800
1800
3000
3000
3000
6000
6000
6000
6000
C000
C000
C000
ENDCHAR

STARTCHAR U
ENCODING 85
SWIDTH 592 0
DWIDTH 11 0
BBX 11 14 2 0
BITMAP
3060
3060
3060
3060
60C0
60C0
60C0
60C0
C180
C180
C180
C180
7F00
3E00
ENDCHAR

STARTCHAR V
ENCODING 86
SWIDTH 547 0
DWIDTH 10 0
BBX 10 14 3 0
BITMAP
C0C0
C0C0
C180
C180
C300
C300
C600
6600
6C00
6C00
7800
7800
7000
6000
ENDCHAR

STARTCHAR W
ENCODING 87
SWIDTH 774 0
DWIDTH 16 0
BBX 14 14 4 0
BITMAP
C30C
C30C
C318
C718
C718
CF30
CF30
CB60
DB60
DB60
71C0
71C0
6180
6180
ENDCHAR

STARTCHAR X
ENCODING 88
SWIDTH 547 0
DWIDTH 10 0
BBX 11 14 1 0
BITMAP
1860
1860
18C0
1980
0D80
0F00
0E00
1E00
1E00
3600
6600
6300
C300
C300
ENDCHAR

STARTCHAR Y
ENCODING 89
SWIDTH 547 0
DWIDTH 10 0
BBX 9 14 3 0
BITMAP
C180
C180
6300
6300
6600
3600
3C00
3800
3000
3000
3000
6000
6000
6000
ENDCHAR

STARTCHAR Z
ENCODING 90
SWIDTH 501 0
DWIDTH 9 0
BBX 11 14 0 0
BITMAP
1FE0
1FE0
0060
00C0
0180
0300
0600
0E00
0C00
1800
3000
6000
FF00
FF00
ENDCHAR

STARTCHAR bracketleft
ENCODING 91
SWIDTH 228 0
DWIDTH 5 0
BBX 7 18 0 -4
BITMAP
0E
0C
0C
18
18
18
18
30
30
30
30
60
60
60
60
C0
C0
E0
ENDCHAR

STARTCHAR backslash
ENCODING 92
SWIDTH 228 0
DWIDTH 6 0
BBX 3 14 2 0
BITMAP
80
80
80
80
40
40
40
40
40
20
20
20
20
20
ENDCHAR

STARTCHAR bracketright
ENCODING 93
SWIDTH 228 0
DWIDTH 5 0
BBX 7 18 -1 -4
BITMAP
0E
06
06
0C
0C
0C
0C
18
18
18
18
30
30
30
30
60
60
E0
ENDCHAR

STARTCHAR asciicircum
ENCODING 94
SWIDTH 385 0
DWIDTH 7 0
BBX 5 7 1 7
BITMAP
10
30
30
50
48
88
88
ENDCHAR

STARTCHAR underscore
ENCODING 95
SWIDTH 456 0
DWIDTH 9 0
BBX 9 1 -1 -3
BITMAP
FF80
ENDCHAR

STARTCHAR quoteleft
ENCODING 96
SWIDTH 182 0
DWIDTH 3 0
BBX 2 4 3 10
BITMAP
40
80
C0
C0
ENDCHAR

STARTCHAR a
ENCODING 97
SWIDTH 456 0
DWIDTH 8 0
BBX 8 10 0 0
BITMAP
1E
3F
33
03
1F
73
C6
C6
FF
7B
ENDCHAR

STARTCHAR b
ENCODING 98
SWIDTH 456 0
DWIDTH 8 0
BBX 9 14 0 0
BITMAP
1800
1800
1800
3000
3700
3F80
3180
6180
6180
6180
6300
E300
FE00
DC00
ENDCHAR

STARTCHAR c
ENCODING 99
SWIDTH 410 0
DWIDTH 8 0
BBX 8 10 1 0
BITMAP
1E
3F
63
60
C0
C0
C6
C6
FC
78
ENDCHAR

STARTCHAR d
ENCODING 100
SWIDTH 456 0
DWIDTH 9 0
BBX 10 14 1 0
BITMAP
00C0
00C0
00C0
0180
1D80
3F80
6300
C300
C300
C300
C600
CE00
FE00
7600
ENDCHAR

STARTCHAR e
ENCODING 101
SWIDTH 456 0
DWIDTH 9 0
BBX 8 10 1 0
BITMAP
1E
3F
63
43
FF
FF
C0
C6
FC
78
ENDCHAR

STARTCHAR f
ENCODING 102
SWIDTH 228 0
DWIDTH 5 0
BBX 7 14 1 0
BITMAP
0E
1E
30
30
7C
7C
30
60
60
60
60
C0
C0
C0
ENDCHAR

STARTCHAR g
ENCODING 103
SWIDTH 456 0
DWIDTH 9 0
BBX 10 14 0 -4
BITMAP
0EC0
1FC0
3180
3180
6180
6180
6180
6300
7F00
3B00
0300
C600
FE00
7800
ENDCHAR

STARTCHAR h
ENCODING 104
SWIDTH 456 0
DWIDTH 8 0
BBX 9 14 0 0
BITMAP
1800
1800
1800
1800
3700
3F80
3180
6180
6300
6300
6300
C600
C600
C600
ENDCHAR

STARTCHAR i
ENCODING 105
SWIDTH 182 0
DWIDTH 3 0
BBX 5 14 0 0
BITMAP
18
18
18
00
30
30
30
60
60
60
60
C0
C0
C0
ENDCHAR

STARTCHAR j
ENCODING 106
SWIDTH 182 0
DWIDTH 3 0
BBX 7 18 -2 -4
BITMAP
06
06
06
00
0C
0C
0C
18
18
18
18
30
30
30
30
60
E0
C0
ENDCHAR

STARTCHAR k
ENCODING 107
SWIDTH 410 0
DWIDTH 8 0
BBX 9 14 0 0
BITMAP
1800
1800
1800
1800
3180
3300
3600
6C00
7800
6C00
6C00
C600
C600
C600
ENDCHAR

STARTCHAR l
ENCODING 108
SWIDTH 182 0
DWIDTH 3 0
BBX 5 14 0 0
BITMAP
18
18
18
18
30
30
30
60
60
60
60
C0
C0
C0
ENDCHAR

STARTCHAR m
ENCODING 109
SWIDTH 683 0
DWIDTH 11 0
BBX 12 10 0 0
BITMAP
36E0
3FF0
3330
6660
6660
6660
6660
CCC0
CCC0
CCC0
ENDCHAR

STARTCHAR n
ENCODING 110
SWIDTH 456 0
DWIDTH 8 0
BBX 9 10 0 0
BITMAP
3700
3F80
3180
6180
6300
6300
6300
C600
C600
C600
ENDCHAR

STARTCHAR o
ENCODING 111
SWIDTH 456 0
DWIDTH 9 0
BBX 8 10 1 0
BITMAP
1E
3F
63
43
C3
C3
C2
C6
FC
78
ENDCHAR

STARTCHAR p
ENCODING 112
SWIDTH 456 0
DWIDTH 8 0
BBX 10 14 -1 -4
BITMAP
1B80
1FC0
18C0
30C0
30C0
30C0
3180
7180
7F00
6E00
6000
C000
C000
C000
ENDCHAR

STARTCHAR q
ENCODING 113
SWIDTH 456 0
DWIDTH 9 0
BBX 9 14 1 -4
BITMAP
1D80
3F80
7380
C300
C300
C300
C300
CE00
FE00
7600
0600
0C00
0C00
0C00
ENDCHAR

STARTCHAR r
ENCODING 114
SWIDTH 273 0
DWIDTH 6 0
BBX 7 10 1 0
BITMAP
36
3E
38
60
60
60
60
C0
C0
C0
ENDCHAR

STARTCHAR s
ENCODING 115
SWIDTH 410 0
DWIDTH 7 0
BBX 8 10 0 0
BITMAP
1E
3F
63
70
3C
0E
06
C6
FC
78
ENDCHAR

STARTCHAR t
ENCODING 116
SWIDTH 228 0
DWIDTH 5 0
BBX 6 13 1 0
BITMAP
18
18
18
7C
7C
30
30
60
60
60
C0
E0
E0
ENDCHAR

STARTCHAR u
ENCODING 117
SWIDTH 456 0
DWIDTH 8 0
BBX 9 10 0 0
BITMAP
3180
3180
3180
6300
6300
6300
C600
C600
FE00
7600
ENDCHAR

STARTCHAR v
ENCODING 118
SWIDTH 410 0
DWIDTH 8 0
BBX 7 10 2 0
BITMAP
C6
C6
CC
CC
D8
D8
D0
70
60
60
ENDCHAR

STARTCHAR w
ENCODING 119
SWIDTH 592 0
DWIDTH 12 0
BBX 11 10 2 0
BITMAP
C660
C660
CEC0
CEC0
DE80
D780
F700
E700
C600
C600
ENDCHAR

STARTCHAR x
ENCODING 120
SWIDTH 410 0
DWIDTH 7 0
BBX 8 10 0 0
BITMAP
33
33
36
36
1C
38
6C
6C
CC
CC
ENDCHAR

STARTCHAR y
ENCODING 121
SWIDTH 410 0
DWIDTH 8 0
BBX 9 14 0 -4
BITMAP
3180
3180
3180
3300
3300
3300
3600
3600
1C00
1800
3000
3000
E000
C000
ENDCHAR

STARTCHAR z
ENCODING 122
SWIDTH 410 0
DWIDTH 7 0
BBX 8 10 0 0
BITMAP
3F
3F
06
0C
18
10
30
60
FC
FC
ENDCHAR

STARTCHAR braceleft
ENCODING 123
SWIDTH 274 0
DWIDTH 5 0
BBX 6 18 1 -4
BITMAP
0C
18
30
30
30
60
60
60
C0
60
60
60
C0
C0
C0
C0
60
30
ENDCHAR

STARTCHAR bar
ENCODING 124
SWIDTH 213 0
DWIDTH 4 0
BBX 4 18 0 -4
BITMAP
10
10
10
10
10
20
20
20
20
40
40
40
40
40
80
80
80
80
ENDCHAR

STARTCHAR braceright
ENCODING 125
SWIDTH 274 0
DWIDTH 6 0
BBX 6 18 0 -4
BITMAP
30
18
0C
0C
0C
18
18
18
0C
18
18
18
18
30
30
30
60
C0
ENDCHAR

STARTCHAR asciitilde
ENCODING 126
SWIDTH 479 0
DWIDTH 9 0
BBX 7 3 1 5
BITMAP
62
92
8C
ENDCHAR

STARTCHAR exclamdown
ENCODING 161
SWIDTH 273 0
DWIDTH 5 0
BBX 5 14 0 -4
BITMAP
18
18
00
30
30
30
60
60
60
60
C0
C0
C0
C0
ENDCHAR

STARTCHAR cent
ENCODING 162
SWIDTH 456 0
DWIDTH 9 0
BBX 8 14 0 -2
BITMAP
04
04
1E
3F
6B
68
C8
D0
D6
D6
FC
78
20
20
ENDCHAR

STARTCHAR sterling
ENCODING 163
SWIDTH 456 0
DWIDTH 9 0
BBX 10 14 -1 0
BITMAP
0780
1FC0
18C0
30C0
3000
3000
1800
7E00
1800
1800
3000
7180
FF80
CF00
ENDCHAR

STARTCHAR currency
ENCODING 164
SWIDTH 456 0
DWIDTH 9 0
BBX 9 9 0 2
BITMAP
3180
3F80
1E00
3300
6300
6600
3C00
FE00
C600
ENDCHAR

STARTCHAR yen
ENCODING 165
SWIDTH 456 0
DWIDTH 9 0
BBX 9 14 0 0
BITMAP
6180
6180
6300
3300
3600
3600
1C00
7F00
1800
1800
FE00
3000
3000
3000
ENDCHAR

STARTCHAR brokenbar
ENCODING 166
SWIDTH 213 0
DWIDTH 4 0
BBX 4 18 0 -4
BITMAP
10
10
10
10
20
20
20
00
00
00
40
40
40
40
80
80
80
80
ENDCHAR

STARTCHAR section
ENCODING 167
SWIDTH 456 0
DWIDTH 9 0
BBX 10 18 0 -4
BITMAP
0780
0FC0
18C0
18C0
1C00
0E00
1F00
3380
3180
3180
3980
1F00
0E00
0600
C600
C600
FC00
7800
ENDCHAR

STARTCHAR dieresis
ENCODING 168
SWIDTH 273 0
DWIDTH 5 0
BBX 5 2 2 11
BITMAP
D8
D8
ENDCHAR

STARTCHAR copyright
ENCODING 169
SWIDTH 604 0
DWIDTH 14 0
BBX 13 14 2 0
BITMAP
07C0
0830
3010
2388
4C48
4808
9008
9008
9050
9090
8F20
4060
6080
1F00
ENDCHAR

STARTCHAR ordfeminine
ENCODING 170
SWIDTH 303 0
DWIDTH 7 0
BBX 6 8 2 6
BITMAP
1C
24
1C
28
48
74
00
F8
ENDCHAR

STARTCHAR guillemotleft
ENCODING 171
SWIDTH 456 0
DWIDTH 9 0
BBX 7 5 2 3
BITMAP
36
6C
D8
D8
6C
ENDCHAR

STARTCHAR logicalnot
ENCODING 172
SWIDTH 479 0
DWIDTH 9 0
BBX 8 5 0 2
BITMAP
FF
02
02
04
04
ENDCHAR

STARTCHAR hyphen
ENCODING 173
SWIDTH 273 0
DWIDTH 5 0
BBX 4 2 0 4
BITMAP
F0
F0
ENDCHAR

STARTCHAR registered
ENCODING 174
SWIDTH 604 0
DWIDTH 14 0
BBX 13 14 2 0
BITMAP
07C0
0830
3010
2708
4488
4888
8888
8F08
9210
9110
9120
4060
6080
1F00
ENDCHAR

STARTCHAR macron
ENCODING 175
SWIDTH 273 0
DWIDTH 6 0
BBX 4 1 3 11
BITMAP
F0
ENDCHAR

STARTCHAR degree
ENCODING 176
SWIDTH 328 0
DWIDTH 7 0
BBX 6 6 2 8
BITMAP
38
4C
84
84
C8
70
ENDCHAR

STARTCHAR plusminus
ENCODING 177
SWIDTH 479 0
DWIDTH 9 0
BBX 9 11 0 0
BITMAP
0400
0400
0400
0400
7F80
0800
0800
0800
0800
0000
FF00
ENDCHAR

STARTCHAR twosuperior
ENCODING 178
SWIDTH 273 0
DWIDTH 5 0
BBX 6 8 1 6
BITMAP
38
44
04
08
30
40
80
F8
ENDCHAR

STARTCHAR threesuperior
ENCODING 179
SWIDTH 273 0
DWIDTH 5 0
BBX 6 8 1 6
BITMAP
38
44
0C
30
08
08
90
E0
ENDCHAR

STARTCHAR acute
ENCODING 180
SWIDTH 273 0
DWIDTH 6 0
BBX 4 3 4 11
BITMAP
30
60
C0
ENDCHAR

STARTCHAR mu
ENCODING 181
SWIDTH 456 0
DWIDTH 8 0
BBX 10 14 -1 -4
BITMAP
18C0
18C0
18C0
3180
3180
3180
6300
6300
7F00
7B00
C000
C000
C000
C000
ENDCHAR

STARTCHAR paragraph
ENCODING 182
SWIDTH 440 0
DWIDTH 9 0
BBX 9 18 3 -4
BITMAP
3F80
7D00
F900
F900
FA00
F200
F200
7400
2400
2400
2400
4800
4800
4800
4800
9000
9000
9000
ENDCHAR

STARTCHAR periodcentered
ENCODING 183
SWIDTH 228 0
DWIDTH 4 0
BBX 2 2 1 6
BITMAP
C0
C0
ENDCHAR

STARTCHAR cedilla
ENCODING 184
SWIDTH 273 0
DWIDTH 5 0
BBX 4 4 0 -4
BITMAP
20
70
30
E0
ENDCHAR

STARTCHAR onesuperior
ENCODING 185
SWIDTH 273 0
DWIDTH 5 0
BBX 3 8 2 6
BITMAP
20
E0
20
20
40
40
40
40
ENDCHAR

STARTCHAR ordmasculine
ENCODING 186
SWIDTH 299 0
DWIDTH 7 0
BBX 6 8 2 6
BITMAP
18
24
44
44
48
30
00
F8
ENDCHAR

STARTCHAR guillemotright
ENCODING 187
SWIDTH 456 0
DWIDTH 9 0
BBX 7 5 2 3
BITMAP
6C
36
36
6C
D8
ENDCHAR

STARTCHAR onequarter
ENCODING 188
SWIDTH 684 0
DWIDTH 14 0
BBX 11 14 2 0
BITMAP
2020
E040
2080
2080
4100
4200
4420
4460
08A0
1140
2240
27E0
4080
8080
ENDCHAR

STARTCHAR onehalf
ENCODING 189
SWIDTH 684 0
DWIDTH 14 0
BBX 12 14 2 0
BITMAP
2020
E040
2080
2080
4100
4200
44E0
4510
0810
1020
20C0
2100
4200
83E0
ENDCHAR

STARTCHAR threequarters
ENCODING 190
SWIDTH 684 0
DWIDTH 14 0
BBX 12 14 1 0
BITMAP
3810
4420
0C40
3040
0880
0900
9210
E230
0450
08A0
1120
13F0
2040
4040
ENDCHAR

STARTCHAR questiondown
ENCODING 191
SWIDTH 501 0
DWIDTH 9 0
BBX 7 14 0 -4
BITMAP
06
06
00
00
0C
0C
18
30
60
C0
C6
C6
FC
78
ENDCHAR

STARTCHAR Agrave
ENCODING 192
SWIDTH 547 0
DWIDTH 10 0
BBX 10 14 0 0
BITMAP
0600
0300
0180
0000
0380
0780
0D80
0D80
1980
3FC0
3FC0
60C0
C0C0
C0C0
ENDCHAR

STARTCHAR Aacute
ENCODING 193
SWIDTH 547 0
DWIDTH 10 0
BBX 10 14 0 0
BITMAP
00C0
0180
0300
0000
0380
0780
0D80
0D80
1980
3FC0
3FC0
60C0
C0C0
C0C0
ENDCHAR

STARTCHAR Acircumflex
ENCODING 194
SWIDTH 547 0
DWIDTH 10 0
BBX 10 14 0 0
BITMAP
0180
0380
06C0
0000
0380
0780
0D80
0D80
1980
3FC0
3FC0
60C0
C0C0
C0C0
ENDCHAR

STARTCHAR Atilde
ENCODING 195
SWIDTH 547 0
DWIDTH 10 0
BBX 11 14 0 0
BITMAP
0320
07C0
0980
0000
0380
0780
0D80
0D80
1980
3FC0
3FC0
60C0
C0C0
C0C0
ENDCHAR

STARTCHAR Adieresis
ENCODING 196
SWIDTH 547 0
DWIDTH 10 0
BBX 10 13 0 0
BITMAP
06C0
06C0
0000
0380
0780
0D80
0D80
1980
3FC0
3FC0
60C0
C0C0
C0C0
ENDCHAR

STARTCHAR Aring
ENCODING 197
SWIDTH 547 0
DWIDTH 10 0
BBX 10 14 0 0
BITMAP
0180
0240
0240
0380
0380
0780
0D80
0D80
1980
3FC0
3FC0
60C0
C0C0
C0C0
ENDCHAR

STARTCHAR AE
ENCODING 198
SWIDTH 820 0
DWIDTH 15 0
BBX 16 14 1 0
BITMAP
03FF
03FF
0660
0660
0CC0
0CC0
18FC
19FC
3F80
3F80
6180
6300
C3F8
C3F8
ENDCHAR

STARTCHAR Ccedilla
ENCODING 199
SWIDTH 592 0
DWIDTH 11 0
BBX 11 18 1 -4
BITMAP
0780
0FC0
1860
3060
6000
6000
C000
C000
C000
C0C0
C0C0
6180
7F00
3E00
0800
1C00
0C00
3800
ENDCHAR

STARTCHAR Egrave
ENCODING 200
SWIDTH 547 0
DWIDTH 10 0
BBX 9 14 1 0
BITMAP
1800
0C00
0600
0000
3F80
3F80
3000
6000
7F00
7F00
6000
C000
FE00
FE00
ENDCHAR

STARTCHAR Eacute
ENCODING 201
SWIDTH 547 0
DWIDTH 10 0
BBX 9 14 1 0
BITMAP
0300
0600
0C00
0000
3F80
3F80
3000
6000
7F00
7F00
6000
C000
FE00
FE00
ENDCHAR

STARTCHAR Ecircumflex
ENCODING 202
SWIDTH 547 0
DWIDTH 10 0
BBX 9 14 1 0
BITMAP
0600
0E00
1B00
0000
3F80
3F80
3000
6000
7F00
7F00
6000
C000
FE00
FE00
ENDCHAR

STARTCHAR Edieresis
ENCODING 203
SWIDTH 547 0
DWIDTH 10 0
BBX 9 13 1 0
BITMAP
1B00
1B00
0000
3F80
3F80
3000
6000
7F00
7F00
6000
C000
FE00
FE00
ENDCHAR

STARTCHAR Igrave
ENCODING 204
SWIDTH 228 0
DWIDTH 4 0
BBX 5 14 1 0
BITMAP
60
30
18
00
30
30
30
60
60
60
60
C0
C0
C0
ENDCHAR

STARTCHAR Iacute
ENCODING 205
SWIDTH 228 0
DWIDTH 4 0
BBX 6 14 1 0
BITMAP
0C
18
30
00
30
30
30
60
60
60
60
C0
C0
C0
ENDCHAR

STARTCHAR Icircumflex
ENCODING 206
SWIDTH 228 0
DWIDTH 4 0
BBX 6 14 1 0
BITMAP
18
38
6C
00
30
30
30
60
60
60
60
C0
C0
C0
ENDCHAR

STARTCHAR Idieresis
ENCODING 207
SWIDTH 228 0
DWIDTH 4 0
BBX 6 13 1 0
BITMAP
6C
6C
00
30
30
30
60
60
60
60
C0
C0
C0
ENDCHAR

STARTCHAR Eth
ENCODING 208
SWIDTH 592 0
DWIDTH 11 0
BBX 11 14 1 0
BITMAP
1F80
1FC0
18C0
1860
3060
3060
FC60
FC60
60C0
60C0
6180
C180
FF00
FE00
ENDCHAR

STARTCHAR Ntilde
ENCODING 209
SWIDTH 592 0
DWIDTH 11 0
BBX 11 14 1 0
BITMAP
0320
07C0
0980
0000
3060
3860
3860
6CC0
6CC0
66C0
66C0
C380
C380
C180
ENDCHAR

STARTCHAR Ograve
ENCODING 210
SWIDTH 638 0
DWIDTH 13 0
BBX 11 14 2 0
BITMAP
0600
0300
0180
0000
0F80
3FC0
70E0
6060
C060
C060
C0C0
E1C0
7F80
3E00
ENDCHAR

STARTCHAR Oacute
ENCODING 211
SWIDTH 638 0
DWIDTH 13 0
BBX 11 14 2 0
BITMAP
0180
0300
0600
0000
0F80
3FC0
70E0
6060
C060
C060
C0C0
E1C0
7F80
3E00
ENDCHAR

STARTCHAR Ocircumflex
ENCODING 212
SWIDTH 638 0
DWIDTH 13 0
BBX 11 14 2 0
BITMAP
0300
0700
0D80
0000
0F80
3FC0
70E0
6060
C060
C060
C0C0
E1C0
7F80
3E00
ENDCHAR

STARTCHAR Otilde
ENCODING 213
SWIDTH 638 0
DWIDTH 13 0
BBX 11 14 2 0
BITMAP
0640
0F80
1300
0000
0F80
3FC0
70E0
6060
C060
C060
C0C0
E1C0
7F80
3E00
ENDCHAR

STARTCHAR Odieresis
ENCODING 214
SWIDTH 638 0
DWIDTH 13 0
BBX 11 13 2 0
BITMAP
0D80
0D80
0000
0F80
3FC0
70E0
6060
C060
C060
C0C0
E1C0
7F80
3E00
ENDCHAR

STARTCHAR multiply
ENCODING 215
SWIDTH 479 0
DWIDTH 9 0
BBX 9 8 1 0
BITMAP
6180
3300
1600
0C00
1800
3400
6600
C300
ENDCHAR

STARTCHAR Oslash
ENCODING 216
SWIDTH 638 0
DWIDTH 13 0
BBX 15 14 0 0
BITMAP
01F6
03FC
0618
0C3C
186C
18CC
318C
330C
3618
3C18
3830
3860
7FC0
CF80
ENDCHAR

STARTCHAR Ugrave
ENCODING 217
SWIDTH 592 0
DWIDTH 11 0
BBX 10 14 2 0
BITMAP
1800
0C00
0600
0000
60C0
60C0
60C0
60C0
C180
C180
C180
C180
7F00
3E00
ENDCHAR

STARTCHAR Uacute
ENCODING 218
SWIDTH 592 0
DWIDTH 11 0
BBX 10 14 2 0
BITMAP
0300
0600
0C00
0000
60C0
60C0
60C0
60C0
C180
C180
C180
C180
7F00
3E00
ENDCHAR

STARTCHAR Ucircumflex
ENCODING 219
SWIDTH 592 0
DWIDTH 11 0
BBX 10 14 2 0
BITMAP
0300
0700
0D80
0000
60C0
60C0
60C0
60C0
C180
C180
C180
C180
7F00
3E00
ENDCHAR

STARTCHAR Udieresis
ENCODING 220
SWIDTH 592 0
DWIDTH 11 0
BBX 10 13 2 0
BITMAP
1B00
1B00
0000
60C0
60C0
60C0
60C0
C180
C180
C180
C180
7F00
3E00
ENDCHAR

STARTCHAR Yacute
ENCODING 221
SWIDTH 547 0
DWIDTH 10 0
BBX 9 14 3 0
BITMAP
0600
0C00
1800
0000
C180
C300
6600
7C00
3800
3000
3000
6000
6000
6000
ENDCHAR

STARTCHAR Thorn
ENCODING 222
SWIDTH 547 0
DWIDTH 10 0
BBX 10 14 1 0
BITMAP
1800
1800
1800
1F80
3FC0
30C0
30C0
60C0
6180
7F00
7E00
C000
C000
C000
ENDCHAR

STARTCHAR germandbls
ENCODING 223
SWIDTH 501 0
DWIDTH 9 0
BBX 9 14 1 0
BITMAP
0F00
1F80
1980
1980
3180
3300
3600
6600
6300
6300
6300
C600
DE00
D800
ENDCHAR

STARTCHAR agrave
ENCODING 224
SWIDTH 456 0
DWIDTH 8 0
BBX 8 14 0 0
BITMAP
18
0C
06
00
1E
3F
33
03
1F
73
C6
C6
FF
7B
ENDCHAR

STARTCHAR aacute
ENCODING 225
SWIDTH 456 0
DWIDTH 8 0
BBX 8 14 0 0
BITMAP
03
06
0C
00
1E
3F
33
03
1F
73
C6
C6
FF
7B
ENDCHAR

STARTCHAR acircumflex
ENCODING 226
SWIDTH 456 0
DWIDTH 8 0
BBX 8 14 0 0
BITMAP
06
0E
1B
00
1E
3F
33
03
1F
73
C6
C6
FF
7B
ENDCHAR

STARTCHAR atilde
ENCODING 227
SWIDTH 456 0
DWIDTH 8 0
BBX 9 14 0 0
BITMAP
0C80
1F00
2600
0000
1E00
3F00
3300
0300
1F00
7300
C600
C600
FF00
7B00
ENDCHAR

STARTCHAR adieresis
ENCODING 228
SWIDTH 456 0
DWIDTH 8 0
BBX 8 13 0 0
BITMAP
1B
1B
00
1E
3F
33
03
1F
73
C6
C6
FF
7B
ENDCHAR

STARTCHAR aring
ENCODING 229
SWIDTH 456 0
DWIDTH 8 0
BBX 8 14 0 0
BITMAP
06
09
09
0E
1E
3F
33
03
1F
73
C6
C6
FF
7B
ENDCHAR

STARTCHAR ae
ENCODING 230
SWIDTH 729 0
DWIDTH 13 0
BBX 13 10 0 0
BITMAP
1EF0
3FF8
3318
0218
1FF8
77F8
C600
C630
FFE0
7BC0
ENDCHAR

STARTCHAR ccedilla
ENCODING 231
SWIDTH 410 0
DWIDTH 8 0
BBX 8 14 1 -4
BITMAP
1E
3F
63
60
C0
C0
C6
C6
FC
78
20
70
30
E0
ENDCHAR

STARTCHAR egrave
ENCODING 232
SWIDTH 456 0
DWIDTH 9 0
BBX 8 14 1 0
BITMAP
18
0C
06
00
1E
3F
63
43
FF
FF
C0
C6
FC
78
ENDCHAR

STARTCHAR eacute
ENCODING 233
SWIDTH 456 0
DWIDTH 9 0
BBX 8 14 1 0
BITMAP
03
06
0C
00
1E
3F
63
43
FF
FF
C0
C6
FC
78
ENDCHAR

STARTCHAR ecircumflex
ENCODING 234
SWIDTH 456 0
DWIDTH 9 0
BBX 8 14 1 0
BITMAP
06
0E
1B
00
1E
3F
63
43
FF
FF
C0
C6
FC
78
ENDCHAR

STARTCHAR edieresis
ENCODING 235
SWIDTH 456 0
DWIDTH 9 0
BBX 8 13 1 0
BITMAP
1B
1B
00
1E
3F
63
43
FF
FF
C0
C6
FC
78
ENDCHAR

STARTCHAR igrave
ENCODING 236
SWIDTH 228 0
DWIDTH 3 0
BBX 5 14 0 0
BITMAP
60
30
18
00
30
30
30
60
60
60
60
C0
C0
C0
ENDCHAR

STARTCHAR iacute
ENCODING 237
SWIDTH 228 0
DWIDTH 3 0
BBX 6 14 0 0
BITMAP
0C
18
30
00
30
30
30
60
60
60
60
C0
C0
C0
ENDCHAR

STARTCHAR icircumflex
ENCODING 238
SWIDTH 228 0
DWIDTH 3 0
BBX 6 14 0 0
BITMAP
18
38
6C
00
30
30
30
60
60
60
60
C0
C0
C0
ENDCHAR

STARTCHAR idieresis
ENCODING 239
SWIDTH 228 0
DWIDTH 3 0
BBX 6 13 0 0
BITMAP
6C
6C
00
30
30
30
60
60
60
60
C0
C0
C0
ENDCHAR

STARTCHAR eth
ENCODING 240
SWIDTH 456 0
DWIDTH 9 0
BBX 8 14 1 0
BITMAP
32
1C
1C
26
1E
3F
63
43
C3
C3
C2
C6
FC
78
ENDCHAR

STARTCHAR ntilde
ENCODING 241
SWIDTH 456 0
DWIDTH 8 0
BBX 10 14 0 0
BITMAP
0640
0F80
1300
0000
3700
3F80
3180
6180
6300
6300
6300
C600
C600
C600
ENDCHAR

STARTCHAR ograve
ENCODING 242
SWIDTH 456 0
DWIDTH 9 0
BBX 8 14 1 0
BITMAP
18
0C
06
00
1E
3F
63
43
C3
C3
C2
C6
FC
78
ENDCHAR

STARTCHAR oacute
ENCODING 243
SWIDTH 456 0
DWIDTH 9 0
BBX 8 14 1 0
BITMAP
03
06
0C
00
1E
3F
63
43
C3
C3
C2
C6
FC
78
ENDCHAR

STARTCHAR ocircumflex
ENCODING 244
SWIDTH 456 0
DWIDTH 9 0
BBX 8 14 1 0
BITMAP
06
0E
1B
00
1E
3F
63
43
C3
C3
C2
C6
FC
78
ENDCHAR

STARTCHAR otilde
ENCODING 245
SWIDTH 456 0
DWIDTH 9 0
BBX 9 14 1 0
BITMAP
0C80
1F00
2600
0000
1E00
3F00
6300
4300
C300
C300
C200
C600
FC00
7800
ENDCHAR

STARTCHAR odieresis
ENCODING 246
SWIDTH 456 0
DWIDTH 9 0
BBX 8 13 1 0
BITMAP
1B
1B
00
1E
3F
63
43
C3
C3
C2
C6
FC
78
ENDCHAR

STARTCHAR divide
ENCODING 247
SWIDTH 479 0
DWIDTH 9 0
BBX 7 9 1 0
BITMAP
18
18
00
00
FE
00
00
30
30
ENDCHAR

STARTCHAR oslash
ENCODING 248
SWIDTH 501 0
DWIDTH 9 0
BBX 12 10 -1 0
BITMAP
07B0
0FE0
18C0
11C0
32C0
34C0
3880
3180
7F00
DE00
ENDCHAR

STARTCHAR ugrave
ENCODING 249
SWIDTH 456 0
DWIDTH 8 0
BBX 9 14 0 0
BITMAP
1800
0C00
0600
0000
3180
3180
3180
6300
6300
6300
C600
C600
FE00
7600
ENDCHAR

STARTCHAR uacute
ENCODING 250
SWIDTH 456 0
DWIDTH 8 0
BBX 9 14 0 0
BITMAP
0300
0600
0C00
0000
3180
3180
3180
6300
6300
6300
C600
C600
FE00
7600
ENDCHAR

STARTCHAR ucircumflex
ENCODING 251
SWIDTH 456 0
DWIDTH 8 0
BBX 9 14 0 0
BITMAP
0600
0E00
1B00
0000
3180
3180
3180
6300
6300
6300
C600
C600
FE00
7600
ENDCHAR

STARTCHAR udieresis
ENCODING 252
SWIDTH 456 0
DWIDTH 8 0
BBX 9 13 0 0
BITMAP
1B00
1B00
0000
3180
3180
3180
6300
6300
6300
C600
C600
FE00
7600
ENDCHAR

STARTCHAR yacute
ENCODING 253
SWIDTH 410 0
DWIDTH 8 0
BBX 9 18 0 -4
BITMAP
0300
0600
0C00
0000
3180
3180
3180
3300
3300
3300
3600
3600
1C00
1800
3000
3000
E000
C000
ENDCHAR

STARTCHAR thorn
ENCODING 254
SWIDTH 456 0
DWIDTH 8 0
BBX 10 18 -1 -4
BITMAP
0C00
0C00
0C00
1800
1B80
1FC0
18C0
30C0
30C0
30C0
3180
7180
7F00
6E00
6000
C000
C000
C000
ENDCHAR

STARTCHAR ydieresis
ENCODING 255
SWIDTH 410 0
DWIDTH 8 0
BBX 9 17 0 -4
BITMAP
1B00
1B00
0000
3180
3180
3180
3300
3300
3300
3600
3600
1C00
1800
3000
3000
E000
C000
ENDCHAR
ENDFONT
